<svg xmlns="http://www.w3.org/2000/svg" viewBox="0 0 718.7 299.51"><defs><style>.cls-1{fill:#39b54a;}.cls-2{fill:none;stroke:#39b54a;stroke-miterlimit:10;}.cls-3{font-size:45.93px;}.cls-3,.cls-5{fill:#0071bc;font-family:TimesNewRomanPS-BoldMT, Times New Roman;font-weight:700;}.cls-4{letter-spacing:-0.02em;}.cls-5{font-size:96.04px;}</style></defs><title>Asset 2</title><g id="Layer_2" data-name="Layer 2"><g id="Layer_1-2" data-name="Layer 1"><polygon class="cls-1" points="208.77 165.75 142.64 165.75 142.64 104.06 69.1 104.06 69.1 165.75 0 165.75 0 233.87 69.1 233.87 69.1 299.51 142.64 299.51 142.64 233.87 208.77 233.87 208.77 165.75"/><path class="cls-2" d="M151.52,169.7s43.93-31.09,77-119.44"/><path class="cls-1" d="M227.83,52.73S220.51,35,227.29,20.4,252.39,0,252.39,0s7.32,17.77.54,32.33S227.83,52.73,227.83,52.73Z"/><path class="cls-1" d="M217.25,72.93s-17-8.95-21.14-24.47,6.19-31.74,6.19-31.74,17,8.95,21.14,24.47S217.25,72.93,217.25,72.93Z"/><path class="cls-1" d="M203.54,101.9s-17-8.95-21.14-24.47,6.19-31.74,6.19-31.74,17,8.95,21.14,24.47S203.54,101.9,203.54,101.9Z"/><path class="cls-1" d="M187.3,130s-17-8.95-21.14-24.47,6.19-31.74,6.19-31.74,17,8.95,21.14,24.47S187.3,130,187.3,130Z"/><path class="cls-1" d="M167.56,153.7s-17-8.95-21.14-24.47,6.19-31.74,6.19-31.74,17,8.95,21.14,24.47S167.56,153.7,167.56,153.7Z"/><path class="cls-1" d="M223.06,67.61s17.36,8.25,32.26,2.25,21.7-24,21.7-24-17.36-8.25-32.26-2.25S223.06,67.61,223.06,67.61Z"/><path class="cls-1" d="M208.17,95.55s16.38,10.06,31.83,5.69,24.14-21.52,24.14-21.52S247.77,69.66,232.31,74,208.17,95.55,208.17,95.55Z"/><path class="cls-1" d="M191.08,126.72s16.38,10.06,31.83,5.69,24.14-21.52,24.14-21.52-16.38-10.06-31.83-5.69S191.08,126.72,191.08,126.72Z"/><path class="cls-1" d="M169.5,153.09s15.85,10.88,31.5,7.3,25.2-20.27,25.2-20.27-15.85-10.88-31.5-7.3S169.5,153.09,169.5,153.09Z"/><text class="cls-3" transform="translate(243.7 161.89)">RUMAH SAKI<tspan class="cls-4" x="302.37" y="0">T</tspan></text><text class="cls-5" transform="translate(243.7 237.71)">BUDIASIH</text><text class="cls-3" transform="translate(243.7 281.29)">SERANG</text></g></g></svg>