<svg id="Layer_1" data-name="Layer 1" xmlns="http://www.w3.org/2000/svg" viewBox="0 0 736 379.49"><defs><style>.cls-1{fill:#fff;stroke:#0071bc;stroke-width:6px;}.cls-1,.cls-3{stroke-miterlimit:10;}.cls-2{fill:#39b54a;}.cls-3{fill:none;stroke:#39b54a;}.cls-4{font-size:41.14px;}.cls-4,.cls-6{fill:#0071bc;font-family:TimesNewRomanPS-BoldMT, Times New Roman;font-weight:700;}.cls-5{letter-spacing:-0.02em;}.cls-6{font-size:86.03px;}</style></defs><title>LOGO BUDIASIH</title><ellipse class="cls-1" cx="368" cy="189.74" rx="365" ry="186.74"/><polygon class="cls-2" points="243.14 175.69 183.9 175.69 183.9 120.43 118.03 120.43 118.03 175.69 56.13 175.69 56.13 236.7 118.03 236.7 118.03 295.5 183.9 295.5 183.9 236.7 243.14 236.7 243.14 175.69"/><path class="cls-3" d="M228.86,302.91s39.35-27.85,69-107" transform="translate(-37 -123.68)"/><path class="cls-2" d="M297.21,198.13s-6.56-15.92-.48-29,22.48-18.27,22.48-18.27,6.56,15.92.48,29S297.21,198.13,297.21,198.13Z" transform="translate(-37 -123.68)"/><path class="cls-2" d="M287.74,216.22s-15.24-8-18.94-21.92,5.54-28.43,5.54-28.43,15.24,8,18.94,21.92S287.74,216.22,287.74,216.22Z" transform="translate(-37 -123.68)"/><path class="cls-2" d="M275.46,242.18s-15.24-8-18.94-21.92,5.54-28.43,5.54-28.43,15.24,8,18.94,21.92S275.46,242.18,275.46,242.18Z" transform="translate(-37 -123.68)"/><path class="cls-2" d="M260.91,267.35s-15.24-8-18.94-21.92S247.51,217,247.51,217s15.24,8,18.94,21.92S260.91,267.35,260.91,267.35Z" transform="translate(-37 -123.68)"/><path class="cls-2" d="M243.22,288.58s-15.24-8-18.94-21.92,5.54-28.43,5.54-28.43,15.24,8,18.94,21.92S243.22,288.58,243.22,288.58Z" transform="translate(-37 -123.68)"/><path class="cls-2" d="M292.94,211.46s15.55,7.39,28.9,2S341.27,192,341.27,192s-15.55-7.39-28.9-2S292.94,211.46,292.94,211.46Z" transform="translate(-37 -123.68)"/><path class="cls-2" d="M279.6,236.49s14.67,9,28.52,5.09,21.62-19.28,21.62-19.28-14.67-9-28.52-5.09S279.6,236.49,279.6,236.49Z" transform="translate(-37 -123.68)"/><path class="cls-2" d="M264.3,264.4s14.67,9,28.52,5.09,21.62-19.28,21.62-19.28-14.67-9-28.52-5.09S264.3,264.4,264.3,264.4Z" transform="translate(-37 -123.68)"/><path class="cls-2" d="M245,288s14.19,9.74,28.22,6.54,22.57-18.16,22.57-18.16-14.19-9.74-28.22-6.54S245,288,245,288Z" transform="translate(-37 -123.68)"/><text class="cls-4" transform="translate(274.43 172.23)">RUMAH SAKI<tspan class="cls-5" x="270.85" y="0">T</tspan></text><text class="cls-6" transform="translate(274.43 240.15)">BUDIASIH</text><text class="cls-4" transform="translate(274.43 279.19)">SERANG</text></svg>